<svg width="40" height="40" viewBox="0 0 40 40" fill="none" xmlns="http://www.w3.org/2000/svg">
<path fill-rule="evenodd" clip-rule="evenodd" d="M13.3729 4.09754C12.2924 0.856156 7.70758 0.856158 6.62712 4.09754C6.22904 5.29177 5.29194 6.22887 4.09771 6.62695C0.856325 7.70741 0.856325 12.2923 4.09771 13.3727C5.29194 13.7708 6.22904 14.7079 6.62712 15.9021C7.70758 19.1435 12.2924 19.1435 13.3729 15.9021C13.771 14.7079 14.7081 13.7708 15.9023 13.3727C19.1437 12.2923 19.1437 7.70741 15.9023 6.62695C14.7081 6.22887 13.771 5.29177 13.3729 4.09754ZM9.7894 5.15164C9.81624 5.0711 9.84754 5.04727 9.86378 5.03628C9.89032 5.01832 9.93736 4.99984 10 4.99984C10.0626 4.99984 10.1097 5.01832 10.1362 5.03628C10.1525 5.04727 10.1838 5.0711 10.2106 5.15164C10.9405 7.34121 12.6586 9.05937 14.8482 9.78923C14.9287 9.81607 14.9526 9.84737 14.9636 9.86361C14.9815 9.89015 15 9.93719 15 9.99984C15 10.0625 14.9815 10.1095 14.9636 10.1361C14.9526 10.1523 14.9287 10.1836 14.8482 10.2104C12.6586 10.9403 10.9405 12.6585 10.2106 14.848C10.1838 14.9286 10.1525 14.9524 10.1362 14.9634C10.1097 14.9814 10.0626 14.9998 10 14.9998C9.93736 14.9998 9.89032 14.9814 9.86378 14.9634C9.84754 14.9524 9.81624 14.9286 9.7894 14.848C9.05954 12.6585 7.34138 10.9403 5.1518 10.2104C5.07127 10.1836 5.04744 10.1523 5.03645 10.1361C5.01848 10.1095 5.00001 10.0625 5.00001 9.99984C5.00001 9.93719 5.01848 9.89015 5.03645 9.86361C5.04744 9.84737 5.07127 9.81607 5.1518 9.78923C7.34138 9.05937 9.05954 7.34121 9.7894 5.15164Z" fill="#5D866C"/>
<path fill-rule="evenodd" clip-rule="evenodd" d="M29.7167 15.0661C28.2058 10.5333 21.7942 10.5333 20.2833 15.0661C19.4623 17.5293 17.5294 19.4621 15.0663 20.2831C10.5335 21.7941 10.5335 28.2056 15.0663 29.7165C17.5294 30.5376 19.4623 32.4704 20.2833 34.9336C21.7942 39.4664 28.2058 39.4664 29.7167 34.9336C30.5378 32.4704 32.4706 30.5376 34.9337 29.7165C39.4665 28.2056 39.4665 21.7941 34.9337 20.2831C32.4706 19.4621 30.5378 17.5293 29.7167 15.0661ZM23.4456 16.1202C23.9435 14.6264 26.0565 14.6264 26.5544 16.1202C27.7073 19.5787 30.4211 22.2926 33.8796 23.4454C35.3735 23.9434 35.3735 26.0563 33.8796 26.5543C30.4211 27.7071 27.7073 30.421 26.5544 33.8795C26.0565 35.3733 23.9435 35.3733 23.4456 33.8795C22.2928 30.421 19.5789 27.7071 16.1204 26.5543C14.6265 26.0563 14.6265 23.9434 16.1204 23.4454C19.5789 22.2926 22.2928 19.5787 23.4456 16.1202Z" fill="#5D866C"/>
</svg>
