<svg width="40" height="40" viewBox="0 0 40 40" fill="none" xmlns="http://www.w3.org/2000/svg">
<path d="M11.6667 33.3332H28.3333M15 26.6665V33.3332M25 26.6665V33.3332M15 19.9998V13.3332M20 19.9998V18.3332M25 19.9998V16.6665M5 8.33317C5 7.89114 5.17559 7.46722 5.48816 7.15466C5.80072 6.8421 6.22464 6.6665 6.66667 6.6665H33.3333C33.7754 6.6665 34.1993 6.8421 34.5118 7.15466C34.8244 7.46722 35 7.89114 35 8.33317V24.9998C35 25.4419 34.8244 25.8658 34.5118 26.1783C34.1993 26.4909 33.7754 26.6665 33.3333 26.6665H6.66667C6.22464 26.6665 5.80072 26.4909 5.48816 26.1783C5.17559 25.8658 5 25.4419 5 24.9998V8.33317Z" stroke="#5D866C" stroke-width="3.33333" stroke-linecap="round" stroke-linejoin="round"/>
</svg>
