<svg width="30" height="31" viewBox="0 0 30 31" fill="none" xmlns="http://www.w3.org/2000/svg">
<path d="M8.96376 16.6325L6.27251 24.6463L9.61251 23.5338L11.5725 26.4588L13.8538 19.98M21.0163 16.6325L23.7088 24.6463L20.3675 23.5338L18.4075 26.4588L16.1263 19.98M11.4563 5.87502C12.1813 5.96002 12.8975 5.66252 13.35 5.09002C13.5465 4.8404 13.7971 4.63862 14.0829 4.49989C14.3687 4.36115 14.6823 4.28906 15 4.28906C15.3177 4.28906 15.6313 4.36115 15.9171 4.49989C16.2029 4.63862 16.4535 4.8404 16.65 5.09002C16.8723 5.37178 17.1631 5.59188 17.4946 5.7293C17.8261 5.86673 18.1873 5.9169 18.5438 5.87502C18.8591 5.83767 19.1787 5.87229 19.4787 5.9763C19.7787 6.08031 20.0513 6.251 20.2758 6.47551C20.5003 6.70003 20.671 6.97254 20.775 7.27254C20.879 7.57254 20.9136 7.89221 20.8763 8.20752C20.7913 8.93252 21.0888 9.65002 21.6613 10.1025C21.9107 10.2991 22.1122 10.5496 22.2508 10.8353C22.3894 11.121 22.4614 11.4344 22.4614 11.7519C22.4614 12.0694 22.3894 12.3828 22.2508 12.6685C22.1122 12.9542 21.9107 13.2047 21.6613 13.4013C21.3795 13.6236 21.1594 13.9143 21.022 14.2459C20.8846 14.5774 20.8344 14.9386 20.8763 15.295C20.9136 15.6103 20.879 15.93 20.775 16.23C20.671 16.53 20.5003 16.8025 20.2758 17.027C20.0513 17.2516 19.7787 17.4222 19.4787 17.5262C19.1787 17.6303 18.8591 17.6649 18.5438 17.6275C18.1871 17.5854 17.8257 17.6355 17.4939 17.7729C17.1621 17.9104 16.8711 18.1306 16.6488 18.4125C16.4522 18.6619 16.2017 18.8635 15.916 19.0021C15.6303 19.1407 15.3169 19.2127 14.9994 19.2127C14.6819 19.2127 14.3685 19.1407 14.0828 19.0021C13.7971 18.8635 13.5465 18.6619 13.35 18.4125C13.1277 18.1308 12.837 17.9107 12.5054 17.7732C12.1739 17.6358 11.8127 17.5856 11.4563 17.6275C11.1408 17.6651 10.821 17.6306 10.5209 17.5267C10.2207 17.4228 9.94804 17.2521 9.72338 17.0276C9.49871 16.803 9.32791 16.5305 9.22383 16.2304C9.11976 15.9303 9.08511 15.6105 9.12251 15.295C9.16452 14.9387 9.11455 14.5776 8.97735 14.246C8.84014 13.9145 8.62029 13.6237 8.33876 13.4013C8.08913 13.2047 7.88736 12.9541 7.74862 12.6683C7.60988 12.3825 7.53779 12.069 7.53779 11.7513C7.53779 11.4336 7.60988 11.12 7.74862 10.8342C7.88736 10.5484 8.08913 10.2978 8.33876 10.1013C8.91126 9.65002 9.20876 8.93252 9.12251 8.20752C9.08511 7.8921 9.11976 7.57229 9.22383 7.27219C9.32791 6.97209 9.49871 6.69951 9.72338 6.47497C9.94804 6.25042 10.2207 6.07977 10.5209 5.97585C10.821 5.87193 11.1408 5.83746 11.4563 5.87502ZM17.5 11.75C17.5 12.4131 17.2366 13.0489 16.7678 13.5178C16.2989 13.9866 15.663 14.25 15 14.25C14.337 14.25 13.7011 13.9866 13.2322 13.5178C12.7634 13.0489 12.5 12.4131 12.5 11.75C12.5 11.087 12.7634 10.4511 13.2322 9.98226C13.7011 9.51342 14.337 9.25002 15 9.25002C15.663 9.25002 16.2989 9.51342 16.7678 9.98226C17.2366 10.4511 17.5 11.087 17.5 11.75Z" stroke="#4D705A" stroke-width="2" stroke-linecap="round" stroke-linejoin="round"/>
</svg>
