<svg width="248" height="81" viewBox="0 0 248 81" fill="none" xmlns="http://www.w3.org/2000/svg">
<path d="M204.719 80.4559C203.961 80.3286 201.122 79.9661 198.404 79.6505C184.292 78.007 164.524 73.3376 142.944 66.5348C138.112 65.0165 133.664 63.5634 133.06 63.3131C132.456 63.0622 131.386 62.6981 130.683 62.5022C129.98 62.3063 121.293 59.1171 121.403 59.0137C121.505 58.9125 133.099 62.6219 137.162 63.6559C158.193 68.9947 180.597 72.7444 190.426 72.5267C193.682 72.4597 193.594 72.4287 186.582 71.1335C182.584 70.3988 175.929 68.8206 169.834 67.1498C165.189 65.8818 151.768 60.5648 149.078 58.9321C148.161 58.377 146.585 57.4301 146.75 57.3212C146.914 57.2113 148.82 57.9362 149.907 58.377C150.599 58.6562 152.652 59.2913 154.465 59.792C156.277 60.291 158.253 60.8913 158.857 61.1253C159.461 61.3582 161.317 61.8437 162.976 62.2083C164.634 62.5724 166.737 63.0845 167.643 63.3512C173.519 65.0655 178.57 66.1158 188.509 67.6886C223.597 73.2396 242.871 66.9974 243.969 49.6205C244.116 47.5797 244.435 46.0287 244.677 46.1757C245.858 46.8995 247.055 52.9784 247.082 58.4206C247.109 63.5743 246.961 64.4614 245.572 67.4001C243.645 71.4818 241.454 73.7675 237.171 76.1621C231.57 79.2804 226.573 80.2818 215.536 80.4886C210.254 80.5876 205.323 80.5642 204.554 80.4366L204.719 80.4559Z" fill="#5D866C"/>
<path d="M209.661 80.4557C209.057 80.3714 196.757 79.8299 192.748 78.6979C188.822 78.3306 185.116 77.8217 184.512 77.5659C183.891 77.3042 185.319 77.2791 187.806 77.5082C195.439 78.2157 219.709 78.8198 223.388 77.8729C228.989 76.4307 233.712 74.6348 236.073 73.0729C238.999 71.1191 242.333 67.7885 242.333 66.8144C242.333 66.3953 242.521 66.0525 242.753 66.0525C243.214 66.0525 244.735 61.9817 245.394 58.9776C245.624 57.9327 245.8 55.6035 245.786 53.8076C245.763 50.9776 244.797 45.5354 245.252 46.9504C246.284 50.1722 246.992 62.7872 245.671 66.1613C244.182 71.3912 238.477 76.447 231.009 78.7872C223.542 81.1491 214.207 80.8171 209.704 80.398L209.661 80.4557ZM189.783 71.5306C184.017 70.5401 178.911 69.8435 173.529 68.3142C165.348 65.9795 152.114 60.804 157.221 62.0013C157.979 62.1825 159.461 62.6816 160.516 63.1115C161.57 63.5409 163.92 64.2489 165.732 64.6843C171.168 65.9904 176.055 67.2312 177.977 67.7972C179.712 68.3126 180.838 68.5482 184.017 69.0652C189.366 69.936 197.141 71.6775 197.58 72.102C198.311 72.8095 196.416 72.668 189.783 71.5251V71.5306Z" fill="#3E5948"/>
<path d="M3.75108 36.8094C2.23555 34.3604 1.03849 28.4829 1.02751 22.9863C1.01757 17.5441 1.15271 16.7278 2.53756 13.9523C8.57773 1.76178 27.0277 -1.83005 57.4483 3.17675C64.6416 4.35226 76.6121 6.92641 82.7072 8.60804C84.8213 9.19035 87.4185 9.90328 88.4728 10.1863C97.6978 12.6897 120.541 19.9278 120.211 20.2543C126.91 22.306 123.325 21.4516 118.948 20.2942C98.6313 14.9609 67.8813 8.97446 57.4483 9.13773C55.1585 9.17441 55.8009 9.39133 61.292 10.4384C70.6268 12.218 79.3577 14.6017 87.1001 17.5132C91.8828 19.2928 102.036 23.935 101.706 24.2615C101.581 24.3862 97.3025 23.0425 93.8541 21.9867C66.3987 13.3881 38.3943 9.9595 23.5684 13.1704C11.7626 15.6738 5.06345 22.2044 4.18488 32.0547C3.97622 34.2316 3.99269 37.0615 3.80599 36.7894L3.75108 36.8094Z" fill="#41608F"/>
<path d="M1.5986 29.8974C-1.71252 15.0947 5.68945 5.08106 22.0803 1.81575C24.0461 1.42718 29.7678 0.972217 34.7647 0.983102C45.0879 1.00161 55.2464 2.41984 68.9191 5.39126C81.5486 8.15045 95.7705 12.1396 96.9236 12.6838C97.4195 12.7072 127.399 22.2076 127.234 22.3164C127.053 22.4275 96.3745 13.3368 95.9901 13.228C95.3861 13.0065 93.6564 12.4824 92.1464 12.0688C84.4589 9.72868 75.6732 7.98718 67.4366 6.40895C56.3995 4.13956 53.8187 3.90555 40.2557 3.90555C25.4848 3.90555 23.0687 4.30283 15.2714 7.98718C8.40753 12.3953 1.32405 21.1573 3.30083 29.7015C3.60284 30.8987 3.6907 32.1504 3.48204 32.477C2.72427 32.6947 2.5815 31.6062 2.14222 29.8647L1.5986 29.8974ZM53.7089 10.5232C47.6687 9.70691 47.504 9.4348 49.4258 8.94501C51.3971 8.42637 63.2084 10.5504 71.7745 12.7382C81.3839 15.1817 98.0218 21.2824 95.3861 21.3913C81.1093 17.2552 66.2834 12.6838 53.654 10.5069L53.7089 10.5232Z" fill="#1B4079"/>
<path d="M17.9125 52.7008C7.86383 49.0546 4.84374 40.1294 11.3232 33.3267C15.3317 29.1906 18.4067 28.4287 30.7616 28.4287H41.1397L40.9574 30.0342L40.7751 31.6396L30.1224 31.9313C18.4265 32.2507 17.2184 32.568 14.3631 36.0129C11.6889 39.2293 11.8317 43.251 14.7425 46.4075C17.4825 49.3844 18.7784 49.6891 30.1175 49.9993L40.7702 50.291L40.9525 51.8965L41.1348 53.5019L30.5919 53.4763C23.4535 53.4763 19.3352 53.2042 17.9075 52.7144L17.9125 52.7008Z" fill="#0F0E0E"/>
<path d="M51.9022 52.5374C48.1518 50.6707 47.7455 49.5497 47.7455 41.1633C47.7455 32.619 48.154 31.4762 51.8473 29.5714C53.8351 28.5483 55.3122 28.4395 67.3321 28.4395H80.6205V30.1918V31.9442H67.7714C52.6161 31.9442 52.3415 32.0193 52.3415 36.6463V39.5306H65.3004H78.2594V40.9891V42.4476H65.3004H52.3415V45.2939C52.3415 47.2258 52.6474 48.3959 53.2915 48.9401C54.0108 49.5442 57.4208 49.8109 67.2937 50.034L80.3075 50.3257L80.4898 51.9312L80.6721 53.5366L67.219 53.5233C55.6878 53.5233 53.2168 53.36 51.6793 52.5981L51.9022 52.5374Z" fill="#0F0E0E"/>
<path d="M88.308 28.9729V41.4899V54.0069H90.5813H92.8546V49.196C92.8541 46.5511 92.8717 44.0097 92.8907 43.5906C92.9191 42.9212 94.0823 42.845 99.4251 43.1351C102.994 43.3299 106.893 43.8154 108.101 44.2126C111.302 45.2521 115.239 48.9854 116.063 51.7228C116.705 53.8834 116.887 54.0194 119.023 54.0194C121.274 54.0194 121.274 54.0086 120.879 52.1256C120.349 49.5895 118.677 46.8793 116.354 44.833L114.443 43.1405L116.914 41.829C119.193 40.6045 121.186 37.8671 121.186 35.9514C121.186 33.9759 119.182 31.2494 116.914 30.1283C114.679 29.0344 113.394 28.9419 101.374 28.9419H88.3057L88.308 28.9729ZM92.926 32.4722H103.469C114.012 32.4722 114.067 32.4673 115.385 33.9307C117.251 35.9389 116.483 38.3008 113.633 39.2913C111.118 40.162 92.8766 40.3253 92.8217 39.4736C92.7929 39.1525 92.7676 38.1022 92.7676 37.1389C92.7676 36.1756 92.7929 34.7335 92.8217 33.928L92.8758 32.4695L92.926 32.4722Z" fill="#0F0E0E"/>
<path d="M138.826 43.231V32.4554H131.907H124.988V30.7031V28.9507H141.407H157.825V30.7031V32.4554H150.632H143.438V43.231V54.0065H141.132H138.826V43.231Z" fill="#0F0E0E"/>
<path d="M163.536 40.9457V28.4287H165.842H168.148V40.9457V53.4627H165.842H163.536V40.9457Z" fill="#0F0E0E"/>
<path d="M177.263 43.9931C177.278 32.8366 177.355 32.5645 181.288 30.17C183.183 29.0271 184.149 28.9509 196.718 28.9509L210.116 28.9487V30.7011V32.4535H197.267C182.057 32.4535 181.837 32.5248 181.837 37.1719V40.078L193.259 40.0341C199.519 40.0102 205.394 40.0004 206.218 40.0129C207.519 40.0309 207.805 40.297 207.805 41.4932V42.9517H194.846H181.887V48.5027V54.0537H179.581H177.274L177.287 43.9857L177.263 43.9931Z" fill="#0F0E0E"/>
<path d="M228.88 48.2383C228.88 44.5431 228.664 42.8995 228.16 42.7417C227.764 42.6073 226.387 42.2252 225.096 41.8927C221.966 41.0873 217.958 38.2954 216.256 35.7431C215.503 34.6111 214.757 32.4995 214.592 31.0519L214.299 28.4233H216.605C218.856 28.4233 218.922 28.4794 219.219 30.7308C219.888 35.792 224.408 39.0029 230.915 39.0574C237.394 39.0949 242.72 35.188 242.72 30.4043C242.72 28.5104 242.794 28.4506 245.027 28.4506C247.251 28.4506 247.333 28.5213 247.322 30.3444C247.303 33.1635 245.477 36.7118 243.099 38.5621C240.491 40.5703 236.51 42.4369 234.808 42.4533C233.556 42.4656 233.512 42.6535 233.512 48.0043V53.5553H231.206H228.899V48.2873L228.88 48.2383Z" fill="#0F0E0E"/>
</svg>
