<svg width="125" height="41" viewBox="0 0 125 41" fill="none" xmlns="http://www.w3.org/2000/svg">
<path d="M102.859 40.228C102.481 40.1643 101.061 39.9831 99.7021 39.8252C92.6461 39.0035 82.7621 36.6688 71.9722 33.2674C69.5561 32.5082 67.3322 31.7817 67.0302 31.6565C66.7282 31.5311 66.1928 31.3491 65.8414 31.2511C65.49 31.1531 61.1465 29.5586 61.2014 29.5069C61.2525 29.4563 67.0494 31.311 69.0811 31.828C79.5965 34.4974 90.7983 36.3722 95.7128 36.2633C97.3409 36.2299 97.297 36.2144 93.791 35.5667C91.7922 35.1994 88.4646 34.4103 85.4171 33.5749C83.0943 32.9409 76.3843 30.2824 75.0389 29.4661C74.5804 29.1885 73.7925 28.715 73.8748 28.6606C73.9569 28.6056 74.9099 28.9681 75.4535 29.1885C75.7995 29.3281 76.8263 29.6456 77.7323 29.896C78.6383 30.1455 79.6267 30.4457 79.9287 30.5627C80.2308 30.6791 81.1587 30.9218 81.9879 31.1042C82.817 31.2862 83.8686 31.5422 84.3216 31.6756C87.2593 32.5327 89.7852 33.0579 94.7546 33.8443C112.299 36.6198 121.935 33.4987 122.485 24.8103C122.558 23.7899 122.718 23.0144 122.839 23.0878C123.429 23.4497 124.028 26.4892 124.041 29.2103C124.054 31.7871 123.981 32.2307 123.286 33.7001C122.323 35.7409 121.227 36.8837 119.086 38.081C116.285 39.6402 113.787 40.1409 108.268 40.2443C105.627 40.2938 103.161 40.2821 102.777 40.2183L102.859 40.228Z" fill="#5D866C"/>
<path d="M105.33 40.2279C105.028 40.1857 98.8783 39.9149 96.8741 39.349C94.911 39.1653 93.0578 38.9109 92.7558 38.783C92.4455 38.6521 93.1594 38.6396 94.4031 38.7541C98.2194 39.1079 110.355 39.4099 112.194 38.9364C114.995 38.2153 117.356 37.3174 118.536 36.5364C120 35.5596 121.666 33.8943 121.666 33.4072C121.666 33.1977 121.761 33.0262 121.876 33.0262C122.107 33.0262 122.867 30.9909 123.197 29.4888C123.312 28.9664 123.4 27.8017 123.393 26.9038C123.381 25.4888 122.899 22.7677 123.126 23.4752C123.642 25.0861 123.996 31.3936 123.335 33.0807C122.591 35.6956 119.739 38.2235 116.005 39.3936C112.271 40.5745 107.603 40.4085 105.352 40.199L105.33 40.2279ZM95.3915 35.7653C92.5087 35.27 89.9553 34.9217 87.2647 34.1571C83.1739 32.9898 76.5571 30.402 79.1105 31.0006C79.4893 31.0913 80.2306 31.3408 80.7578 31.5558C81.2849 31.7704 82.46 32.1245 83.366 32.3421C86.0841 32.9952 88.5276 33.6156 89.4886 33.8986C90.3562 34.1563 90.919 34.2741 92.5087 34.5326C95.1828 34.968 99.0705 35.8387 99.2901 36.051C99.6553 36.4047 98.7081 36.334 95.3915 35.7626V35.7653Z" fill="#3E5948"/>
<path d="M2.37557 18.4047C1.6178 17.1802 1.01928 14.2414 1.01379 11.4931C1.00882 8.77205 1.07638 8.36388 1.76881 6.97613C4.7889 0.880892 14.0139 -0.915027 29.2242 1.58837C32.8208 2.17613 38.8061 3.4632 41.8536 4.30402C42.9107 4.59518 44.2093 4.95164 44.7364 5.09314C49.3489 6.34484 60.7704 9.96389 60.6056 10.1272C63.9552 11.153 62.1624 10.7258 59.9742 10.1471C49.8157 7.48043 34.4407 4.48723 29.2242 4.56886C28.0793 4.5872 28.4005 4.69567 31.146 5.2192C35.8134 6.109 40.1789 7.30084 44.0501 8.75662C46.4414 9.64642 51.5179 11.9675 51.3532 12.1308C51.2903 12.1931 49.1513 11.5212 47.4271 10.9934C33.6994 6.69404 19.6972 4.97975 12.2842 6.58519C6.38131 7.83689 3.03176 11.1022 2.59247 16.0274C2.48814 17.1158 2.49638 18.5308 2.40303 18.3947L2.37557 18.4047Z" fill="#41608F"/>
<path d="M1.29924 14.9489C-0.356319 7.54758 3.34466 2.54077 11.5401 0.908121C12.523 0.713836 15.3838 0.486353 17.8823 0.491795C23.0439 0.501047 28.1231 1.21016 34.9595 2.69588C41.2742 4.07547 48.3852 6.07003 48.9617 6.34213C49.2097 6.35384 64.1995 11.104 64.1171 11.1585C64.0262 11.214 48.6872 6.66866 48.495 6.61424C48.193 6.50349 47.3282 6.24145 46.5731 6.03465C42.7294 4.86458 38.3365 3.99384 34.2182 3.20472C28.6997 2.07003 27.4093 1.95302 20.6278 1.95302C13.2423 1.95302 12.0343 2.15166 8.13562 3.99384C4.7037 6.19792 1.16196 10.5789 2.15036 14.851C2.30136 15.4496 2.34529 16.0755 2.24096 16.2387C1.86207 16.3476 1.79069 15.8034 1.57105 14.9326L1.29924 14.9489ZM27.3544 5.26186C24.3343 4.8537 24.2519 4.71765 25.2129 4.47275C26.1985 4.21343 32.1042 5.27547 36.3872 6.36935C41.1919 7.59111 49.5109 10.6415 48.193 10.6959C41.0546 8.62785 33.6417 6.34213 27.3269 5.2537L27.3544 5.26186Z" fill="#1B4079"/>
<path d="M9.45621 26.3504C4.43188 24.5273 2.92184 20.0647 6.16157 16.6633C8.16581 14.5953 9.70331 14.2144 15.8808 14.2144H21.0698L20.9787 15.0171L20.8875 15.8198L15.5612 15.9656C9.7132 16.1254 9.10918 16.284 7.6815 18.0065C6.34442 19.6146 6.41581 21.6255 7.87122 23.2037C9.24124 24.6922 9.88918 24.8446 15.5587 24.9997L20.8851 25.1455L20.9762 25.9482L21.0674 26.751L15.7959 26.7382C12.2267 26.7382 10.1676 26.6021 9.45374 26.3572L9.45621 26.3504Z" fill="#FCFCFD"/>
<path d="M26.4512 26.2687C24.576 25.3354 24.3728 24.7748 24.3728 20.5816C24.3728 16.3095 24.5771 15.7381 26.4237 14.7857C27.4176 14.2741 28.1562 14.2197 34.1661 14.2197H40.8103V15.0959V15.9721H34.3858C26.8081 15.9721 26.6708 16.0097 26.6708 18.3231V19.7653H33.1503H39.6297V20.4946V21.2238H33.1503H26.6708V22.6469C26.6708 23.6129 26.8237 24.198 27.1458 24.4701C27.5055 24.7721 29.2104 24.9054 34.1469 25.017L40.6538 25.1629L40.745 25.9656L40.8361 26.7683L34.1096 26.7616C28.3439 26.7616 27.1085 26.68 26.3397 26.299L26.4512 26.2687Z" fill="#FCFCFD"/>
<path d="M44.654 14.4862V20.7447V27.0032H45.7907H46.9273V24.5978C46.9271 23.2753 46.9359 22.0046 46.9454 21.7951C46.9596 21.4604 47.5411 21.4223 50.2125 21.5673C51.9971 21.6647 53.9465 21.9074 54.5505 22.1061C56.1511 22.6258 58.1197 24.4925 58.5315 25.8612C58.8527 26.9415 58.9433 27.0095 60.0114 27.0095C61.137 27.0095 61.137 27.004 60.9394 26.0625C60.6744 24.7945 59.8384 23.4394 58.677 22.4163L57.7216 21.57L58.9571 20.9142C60.0965 20.302 61.0931 18.9333 61.0931 17.9755C61.0931 16.9877 60.091 15.6244 58.9571 15.0639C57.8396 14.517 57.1972 14.4707 51.1872 14.4707H44.6528L44.654 14.4862ZM46.963 16.2359H52.2344C57.5059 16.2359 57.5333 16.2334 58.1923 16.9651C59.1257 17.9692 58.7414 19.1502 57.3164 19.6454C56.059 20.0808 46.9383 20.1624 46.9108 19.7366C46.8964 19.576 46.8838 19.0508 46.8838 18.5692C46.8838 18.0876 46.8964 17.3665 46.9108 16.9638L46.9379 16.2345L46.963 16.2359Z" fill="#FCFCFD"/>
<path d="M69.9129 21.6157V16.228H66.4535H62.9941V15.3518V14.4756H71.2033H79.4124V15.3518V16.228H75.8158H72.2191V21.6157V27.0035H71.066H69.9129V21.6157Z" fill="#FCFCFD"/>
<path d="M82.2678 20.4729V14.2144H83.421H84.5741V20.4729V26.7314H83.421H82.2678V20.4729Z" fill="#FCFCFD"/>
<path d="M89.1316 21.9968C89.1387 16.4186 89.1774 16.2825 91.1441 15.0852C92.0913 14.5138 92.5745 14.4757 98.859 14.4757L105.558 14.4746V15.3508V16.227H99.1336C91.5284 16.227 91.4186 16.2626 91.4186 18.5862V20.0392L97.1293 20.0173C100.259 20.0053 103.197 20.0004 103.609 20.0067C104.259 20.0157 104.402 20.1487 104.402 20.7468V21.4761H97.9228H91.4433V24.2516V27.0271H90.2902H89.1371L89.1435 21.9931L89.1316 21.9968Z" fill="#FCFCFD"/>
<path d="M114.94 24.1189C114.94 22.2713 114.832 21.4495 114.58 21.3706C114.382 21.3034 113.693 21.1124 113.048 20.9461C111.483 20.5434 109.479 19.1475 108.628 17.8713C108.252 17.3053 107.878 16.2495 107.796 15.5257L107.649 14.2114H108.803C109.928 14.2114 109.961 14.2395 110.109 15.3652C110.444 17.8958 112.704 19.5012 115.957 19.5284C119.197 19.5472 121.86 17.5937 121.86 15.2019C121.86 14.255 121.897 14.225 123.013 14.225C124.125 14.225 124.167 14.2604 124.161 15.172C124.152 16.5815 123.239 18.3556 122.05 19.2808C120.746 20.2849 118.755 21.2182 117.904 21.2264C117.278 21.2325 117.256 21.3265 117.256 24.0019V26.7774H116.103H114.95V24.1434L114.94 24.1189Z" fill="#FCFCFD"/>
</svg>
