<svg width="40" height="40" viewBox="0 0 40 40" fill="none" xmlns="http://www.w3.org/2000/svg">
<path d="M11.6667 19.9998C11.6667 19.0794 12.4129 18.3332 13.3333 18.3332H26.6667C27.5871 18.3332 28.3333 19.0794 28.3333 19.9998C28.3333 20.9203 27.5871 21.6665 26.6667 21.6665H13.3333C12.4129 21.6665 11.6667 20.9203 11.6667 19.9998Z" fill="#4D705A"/>
<path d="M13.3333 26.6665C12.4129 26.6665 11.6667 27.4127 11.6667 28.3332C11.6667 29.2536 12.4129 29.9998 13.3333 29.9998H26.6667C27.5871 29.9998 28.3333 29.2536 28.3333 28.3332C28.3333 27.4127 27.5871 26.6665 26.6667 26.6665H13.3333Z" fill="#4D705A"/>
<path fill-rule="evenodd" clip-rule="evenodd" d="M11.6667 1.6665C7.98477 1.6665 5 4.65127 5 8.33317V31.6665C5 35.3484 7.98477 38.3332 11.6667 38.3332H28.3333C32.0152 38.3332 35 35.3484 35 31.6665V15.1434C35 13.5838 34.4532 12.0736 33.4548 10.8755L27.7796 4.06527C26.513 2.54532 24.6367 1.6665 22.6581 1.6665H11.6667ZM8.33333 8.33317C8.33333 6.49222 9.82572 4.99984 11.6667 4.99984H21.6667V9.99984C21.6667 13.6817 24.6514 16.6665 28.3333 16.6665H31.6667V31.6665C31.6667 33.5074 30.1743 34.9998 28.3333 34.9998H11.6667C9.82572 34.9998 8.33333 33.5074 8.33333 31.6665V8.33317ZM31.1323 13.3332C31.0598 13.2211 30.9803 13.1129 30.8941 13.0095L25.2189 6.19922C25.1495 6.11594 25.0764 6.0365 25 5.96107V9.99984C25 11.8408 26.4924 13.3332 28.3333 13.3332H31.1323Z" fill="#4D705A"/>
</svg>
