<svg width="40" height="40" viewBox="0 0 40 40" fill="none" xmlns="http://www.w3.org/2000/svg">
<path fill-rule="evenodd" clip-rule="evenodd" d="M21.2876 4.24494C20.4959 3.76992 19.5069 3.76991 18.7151 4.24494L3.66819 13.2731C2.04984 14.2441 2.04984 16.5896 3.66819 17.5606L6.66805 19.3605V30.0265C6.66805 30.7563 6.9897 31.5008 7.64101 31.9884C8.90967 32.9382 13.7534 36.2502 20.0014 36.2502C26.2493 36.2502 31.0931 32.9382 32.3618 31.9884C33.0131 31.5008 33.3347 30.7563 33.3347 30.0265V19.3605L36.3346 17.5606C37.9529 16.5896 37.9529 14.2441 36.3346 13.2731L21.2876 4.24494ZM6.57414 15.4168L20.0014 7.3605L33.4286 15.4168L27.8255 18.7787L21.8034 14.4773C21.0544 13.9423 20.0135 14.1158 19.4785 14.8648C18.9435 15.6138 19.117 16.6547 19.866 17.1897L24.7087 20.6488L20.0014 23.4732L6.57414 15.4168ZM25.0014 24.3605L21.2876 26.5888C20.4959 27.0638 19.5069 27.0638 18.7151 26.5888L10.0014 21.3605V29.582C11.4725 30.6104 15.3086 32.9168 20.0014 32.9168C24.6942 32.9168 28.5303 30.6104 30.0014 29.582V21.3605L28.3347 22.3605V26.6668C28.3347 27.5873 27.5885 28.3335 26.6681 28.3335C25.7476 28.3335 25.0014 27.5873 25.0014 26.6668V24.3605Z" fill="#4D705A"/>
</svg>
