<svg width="40" height="40" viewBox="0 0 40 40" fill="none" xmlns="http://www.w3.org/2000/svg">
<path d="M21.6666 24.9998C21.6666 24.0794 20.9205 23.3332 20 23.3332C19.0795 23.3332 18.3333 24.0794 18.3333 24.9998V28.3332C18.3333 29.2536 19.0795 29.9998 20 29.9998C20.9205 29.9998 21.6666 29.2536 21.6666 28.3332V24.9998Z" fill="#5D866C"/>
<path fill-rule="evenodd" clip-rule="evenodd" d="M30 11.6665C30 6.14366 25.5228 1.6665 20 1.6665C14.4771 1.6665 9.99998 6.14366 9.99998 11.6665V14.9998C6.31808 14.9998 3.33331 17.9846 3.33331 21.6665V31.6665C3.33331 35.3484 6.31808 38.3332 9.99998 38.3332H30C33.6819 38.3332 36.6666 35.3484 36.6666 31.6665V21.6665C36.6666 17.9846 33.6819 14.9998 30 14.9998V11.6665ZM13.3333 11.6665C13.3333 7.98461 16.3181 4.99984 20 4.99984C23.6819 4.99984 26.6666 7.98461 26.6666 11.6665V14.9998H13.3333V11.6665ZM6.66665 21.6665C6.66665 19.8256 8.15903 18.3332 9.99998 18.3332H30C31.8409 18.3332 33.3333 19.8256 33.3333 21.6665V31.6665C33.3333 33.5074 31.8409 34.9998 30 34.9998H9.99998C8.15903 34.9998 6.66665 33.5074 6.66665 31.6665V21.6665Z" fill="#5D866C"/>
</svg>
