<svg width="40" height="40" viewBox="0 0 40 40" fill="none" xmlns="http://www.w3.org/2000/svg">
<path fill-rule="evenodd" clip-rule="evenodd" d="M20 9.16686C15.8579 9.16686 12.5 12.5247 12.5 16.6669C12.5 20.809 15.8579 24.1669 20 24.1669C24.1421 24.1669 27.5 20.809 27.5 16.6669C27.5 12.5247 24.1421 9.16686 20 9.16686ZM15.8333 16.6669C15.8333 14.3657 17.6988 12.5002 20 12.5002C22.3012 12.5002 24.1667 14.3657 24.1667 16.6669C24.1667 18.968 22.3012 20.8335 20 20.8335C17.6988 20.8335 15.8333 18.968 15.8333 16.6669Z" fill="#4D705A"/>
<path fill-rule="evenodd" clip-rule="evenodd" d="M13.0154 5.98684C17.2449 3.16715 22.7551 3.16715 26.9846 5.98684C32.7028 9.79894 34.3081 17.4919 30.5918 23.2728L24.2059 33.2065C22.2377 36.2681 17.7623 36.2681 15.7941 33.2065L9.40818 23.2728C5.69189 17.4919 7.29725 9.79894 13.0154 5.98684ZM14.8644 8.76034C17.9743 6.68709 22.0257 6.68709 25.1356 8.76034C29.34 11.5633 30.5204 17.2197 27.7879 21.4702L21.402 31.4039C20.7459 32.4245 19.2541 32.4245 18.598 31.4039L12.2121 21.4702C9.47961 17.2197 10.66 11.5633 14.8644 8.76034Z" fill="#4D705A"/>
</svg>
