<svg width="40" height="40" viewBox="0 0 40 40" fill="none" xmlns="http://www.w3.org/2000/svg">
<path fill-rule="evenodd" clip-rule="evenodd" d="M19.999 10.0001C14.4761 10.0001 9.99897 14.4773 9.99897 20.0001C9.99897 25.523 14.4761 30.0001 19.999 30.0001C25.5218 30.0001 29.999 25.523 29.999 20.0001C29.999 14.4773 25.5218 10.0001 19.999 10.0001ZM13.3323 20.0001C13.3323 16.3182 16.3171 13.3335 19.999 13.3335C23.6809 13.3335 26.6656 16.3182 26.6656 20.0001C26.6656 23.682 23.6809 26.6668 19.999 26.6668C16.3171 26.6668 13.3323 23.682 13.3323 20.0001Z" fill="#4D705A"/>
<path fill-rule="evenodd" clip-rule="evenodd" d="M24.1687 3.38163C21.8438 1.13255 18.1542 1.13255 15.8293 3.38163C15.2388 3.95289 14.4177 4.21967 13.6042 4.10461C10.4014 3.65158 7.4164 5.8203 6.85752 9.00636C6.71556 9.8156 6.20811 10.5141 5.48234 10.8991C2.62492 12.4152 1.48476 15.9243 2.90533 18.8303C3.26615 19.5685 3.26615 20.4318 2.90533 21.1699C1.48476 24.076 2.62492 27.5851 5.48234 29.1011C6.20811 29.4862 6.71556 30.1847 6.85752 30.9939C7.4164 34.18 10.4014 36.3487 13.6042 35.8957C14.4177 35.7806 15.2388 36.0474 15.8293 36.6186C18.1542 38.8677 21.8438 38.8677 24.1687 36.6186C24.7592 36.0474 25.5802 35.7806 26.3937 35.8957C29.5966 36.3487 32.5815 34.18 33.1404 30.9939C33.2824 30.1847 33.7898 29.4862 34.5156 29.1011C37.373 27.5851 38.5132 24.076 37.0926 21.1699C36.7318 20.4318 36.7318 19.5685 37.0926 18.8303C38.5132 15.9243 37.373 12.4152 34.5156 10.8991C33.7898 10.5141 33.2824 9.8156 33.1404 9.00636C32.5815 5.8203 29.5966 3.65158 26.3937 4.10461C25.5802 4.21967 24.7592 3.95289 24.1687 3.38163ZM18.1469 5.77738C19.1796 4.77842 20.8184 4.77842 21.851 5.77738C23.1805 7.0635 25.029 7.66414 26.8606 7.40509C28.2832 7.20387 29.609 8.16714 29.8572 9.58228C30.1768 11.4042 31.3193 12.9767 32.9533 13.8437C34.2225 14.5171 34.7289 16.0757 34.0979 17.3664C33.2856 19.0283 33.2856 20.972 34.0979 22.6338C34.7289 23.9246 34.2225 25.4832 32.9533 26.1566C31.3193 27.0236 30.1768 28.5961 29.8572 30.418C29.609 31.8331 28.2832 32.7964 26.8606 32.5952C25.029 32.3361 23.1805 32.9368 21.851 34.2229C20.8184 35.2218 19.1796 35.2218 18.1469 34.2229C16.8175 32.9368 14.9689 32.3361 13.1374 32.5952C11.7148 32.7964 10.389 31.8331 10.1407 30.418C9.82113 28.5961 8.67864 27.0236 7.04464 26.1566C5.77547 25.4832 5.26905 23.9246 5.90002 22.6338C6.71237 20.972 6.71237 19.0283 5.90002 17.3664C5.26905 16.0757 5.77547 14.5171 7.04464 13.8437C8.67864 12.9767 9.82113 11.4042 10.1407 9.58228C10.389 8.16714 11.7148 7.20387 13.1374 7.40509C14.9689 7.66414 16.8175 7.0635 18.1469 5.77738Z" fill="#4D705A"/>
</svg>
