<svg width="30" height="31" viewBox="0 0 30 31" fill="none" xmlns="http://www.w3.org/2000/svg">
<path d="M18.3701 14.5086C18.8583 14.0205 18.8583 13.229 18.3701 12.7409C17.882 12.2527 17.0905 12.2527 16.6024 12.7409L14.1789 15.1643L13.8266 14.8119C13.3384 14.3238 12.547 14.3238 12.0588 14.8119C11.5707 15.3001 11.5707 16.0915 12.0588 16.5797L13.295 17.8159C13.7832 18.3041 14.5747 18.3041 15.0628 17.8159L18.3701 14.5086Z" fill="#4D705A"/>
<path fill-rule="evenodd" clip-rule="evenodd" d="M16.8595 3.02321C15.666 2.545 14.334 2.545 13.1404 3.02321L8.60723 4.83944C8.59313 4.84509 8.57914 4.85099 8.56525 4.85715L6.63084 5.71525C4.93431 6.46782 3.74984 8.12482 3.75 10.0544C3.75021 12.5134 3.92749 16.6756 5.08356 19.5313C5.85225 21.4302 7.23671 23.076 8.64379 24.3912C10.061 25.7158 11.5708 26.7694 12.6813 27.4706C14.1045 28.3692 15.8955 28.3692 17.3187 27.4706C18.4292 26.7694 19.939 25.7158 21.3562 24.3912C22.7633 23.076 24.1478 21.4302 24.9164 19.5313C26.0725 16.6756 26.2498 12.5134 26.25 10.0544C26.2502 8.12482 25.0657 6.46782 23.3692 5.71525L21.4347 4.85715C21.4209 4.85099 21.4069 4.84509 21.3928 4.83944L16.8595 3.02321ZM14.0702 5.34388C14.667 5.10477 15.333 5.10477 15.9298 5.34388L20.4418 7.15164L22.3554 8.0005C23.2164 8.38244 23.7501 9.18587 23.75 10.0542C23.7498 12.5302 23.5519 16.2396 22.5991 18.5932C22.0217 20.0197 20.9234 21.3736 19.6491 22.5648C18.3848 23.7465 17.0145 24.706 15.9839 25.3567C15.3761 25.7405 14.6239 25.7405 14.0161 25.3567C12.9855 24.706 11.6152 23.7465 10.3509 22.5648C9.07658 21.3736 7.97835 20.0197 7.40088 18.5932C6.44808 16.2396 6.25021 12.5302 6.25 10.0542C6.24993 9.18587 6.78356 8.38244 7.64457 8.0005L9.55816 7.15163L14.0702 5.34388Z" fill="#4D705A"/>
</svg>
