<svg width="40" height="40" viewBox="0 0 40 40" fill="none" xmlns="http://www.w3.org/2000/svg">
<path fill-rule="evenodd" clip-rule="evenodd" d="M20 3.3335C15.3976 3.3335 11.6667 7.06446 11.6667 11.6668C11.6667 16.2692 15.3976 20.0002 20 20.0002C24.6024 20.0002 28.3333 16.2692 28.3333 11.6668C28.3333 7.06446 24.6024 3.3335 20 3.3335ZM15 11.6668C15 8.90541 17.2386 6.66683 20 6.66683C22.7614 6.66683 25 8.90541 25 11.6668C25 14.4283 22.7614 16.6668 20 16.6668C17.2386 16.6668 15 14.4283 15 11.6668Z" fill="#4D705A"/>
<path fill-rule="evenodd" clip-rule="evenodd" d="M20 38.3335C17.4325 38.3335 13.7164 37.7505 10.9257 36.5291C9.55571 35.9295 8.16241 35.0714 7.35291 33.8292C6.92718 33.1759 6.65805 32.4063 6.66687 31.5472C6.67561 30.6959 6.95572 29.8803 7.42651 29.1215C9.70885 25.4429 14.378 21.6668 20 21.6668C25.622 21.6668 30.2911 25.4429 32.5735 29.1215C33.0443 29.8803 33.3244 30.6959 33.3331 31.5472C33.3419 32.4063 33.0728 33.1759 32.6471 33.8292C31.8376 35.0714 30.4443 35.9295 29.0743 36.5291C26.2836 37.7505 22.5675 38.3335 20 38.3335ZM10.259 30.8788C10.0395 31.2326 10.0013 31.4597 10 31.5814C9.99886 31.6952 10.0281 31.829 10.1456 32.0093C10.4226 32.4343 11.0951 32.9647 12.2622 33.4755C14.5457 34.4749 17.7887 35.0002 20 35.0002C22.2113 35.0002 25.4542 34.4749 27.7378 33.4755C28.9049 32.9647 29.5774 32.4343 29.8544 32.0093C29.9719 31.829 30.0011 31.6952 30 31.5814C29.9987 31.4597 29.9605 31.2326 29.741 30.8788C27.8708 27.8644 24.1405 25.0002 20 25.0002C15.8594 25.0002 12.1292 27.8644 10.259 30.8788Z" fill="#4D705A"/>
</svg>
