<svg width="30" height="31" viewBox="0 0 30 31" fill="none" xmlns="http://www.w3.org/2000/svg">
<path fill-rule="evenodd" clip-rule="evenodd" d="M19.2725 7.55388C19.1001 7.27843 18.8461 7.06358 18.5459 6.93923C18.2457 6.81489 17.9142 6.78724 17.5975 6.86013L15.35 7.37638C15.1197 7.42932 14.8803 7.42932 14.65 7.37638L12.4025 6.86013C12.0858 6.78724 11.7543 6.81489 11.4541 6.93923C11.1539 7.06358 10.8999 7.27843 10.7275 7.55388L9.50251 9.50888C9.37751 9.70888 9.20875 9.87763 9.00875 10.0039L7.05376 11.2289C6.77878 11.4011 6.56424 11.6547 6.43992 11.9544C6.3156 12.2541 6.28767 12.5851 6.36 12.9014L6.87626 15.1514C6.929 15.3813 6.929 15.6202 6.87626 15.8501L6.36 18.0989C6.28739 18.4154 6.31518 18.7466 6.43951 19.0466C6.56385 19.3465 6.77854 19.6003 7.05376 19.7726L9.00875 20.9976C9.20875 21.1226 9.37751 21.2914 9.50376 21.4914L10.7288 23.4464C11.0813 24.0101 11.7538 24.2889 12.4025 24.1401L14.65 23.6239C14.8803 23.5709 15.1197 23.5709 15.35 23.6239L17.5988 24.1401C17.9152 24.2127 18.2465 24.185 18.5465 24.0606C18.8464 23.9363 19.1002 23.7216 19.2725 23.4464L20.4975 21.4914C20.6225 21.2914 20.7913 21.1226 20.9913 20.9976L22.9475 19.7726C23.2227 19.6001 23.4373 19.346 23.5614 19.0458C23.6856 18.7456 23.713 18.4142 23.64 18.0976L23.125 15.8501C23.0721 15.6198 23.0721 15.3805 23.125 15.1501L23.6413 12.9014C23.714 12.585 23.6864 12.2539 23.5623 11.9539C23.4382 11.654 23.2237 11.4001 22.9488 11.2276L20.9925 10.0026C20.7928 9.8774 20.624 9.70861 20.4988 9.50888L19.2725 7.55388ZM18.6438 12.7126C18.7211 12.5705 18.7402 12.4039 18.6972 12.2478C18.6542 12.0918 18.5523 11.9586 18.413 11.8762C18.2738 11.7938 18.108 11.7686 17.9505 11.8059C17.793 11.8432 17.6562 11.9402 17.5688 12.0764L14.3 17.6089L12.3263 15.7189C12.2677 15.6588 12.1976 15.611 12.1202 15.5786C12.0429 15.5461 11.9597 15.5296 11.8758 15.53C11.7919 15.5303 11.7089 15.5476 11.6318 15.5807C11.5547 15.6139 11.485 15.6622 11.427 15.7228C11.369 15.7834 11.3237 15.8551 11.294 15.9336C11.2643 16.0121 11.2507 16.0958 11.254 16.1796C11.2573 16.2635 11.2775 16.3458 11.3133 16.4217C11.3491 16.4976 11.3999 16.5655 11.4625 16.6214L14.005 19.0576C14.0731 19.1227 14.1549 19.1716 14.2445 19.2005C14.3341 19.2295 14.429 19.2379 14.5223 19.225C14.6156 19.2122 14.7047 19.1784 14.7831 19.1263C14.8615 19.0741 14.9271 19.0049 14.975 18.9239L18.6438 12.7126Z" fill="#4D705A"/>
</svg>
